# Blender v2.82 (sub 7) OBJ File: 'low_poly_tree.blend'
# www.blender.org
mtllib low_poly_tree.mtl
o lowpolytree2
v -0.575003 8.886751 1.252582
v 0.522950 8.336149 1.697197
v 1.127113 8.220257 1.007583
v 0.960808 8.345666 -0.057082
v 0.263477 8.410531 -0.181247
v -0.764501 8.831967 0.438803
v 1.673425 7.816581 -0.850794
v 1.608560 7.141528 -1.332058
v 1.079468 7.000583 -1.543131
v 0.404422 7.697914 -1.165760
v 0.785644 5.972612 -1.889608
v -0.028127 6.162103 -2.075643
v -0.798969 7.260056 -1.785370
v -0.660235 7.864219 -1.335170
v -1.992535 7.147422 -1.191516
v -2.430612 7.416251 -0.470978
v -2.078565 8.436835 -0.214096
v -1.459181 8.646569 -0.431641
v -1.912267 8.364570 0.850568
v -1.199709 8.813079 1.446795
v -2.194574 7.023176 1.251681
v -1.901373 6.992538 1.847864
v -1.199291 7.902340 2.318666
v -0.654349 8.458484 2.265926
v -1.332608 6.960559 2.686388
v -0.518836 6.736381 2.872424
v 0.679145 7.247633 2.560906
v 0.410316 7.968215 2.435335
v 1.699729 7.040197 1.707322
v 1.909463 7.697431 0.871865
v 2.094854 7.522758 -0.281794
v 2.149645 6.708979 -0.174504
v 1.599036 5.938137 -0.728503
v 1.483151 6.076871 -1.228524
v 1.627463 5.975533 1.810849
v 2.075966 5.818995 0.994156
v -1.592373 6.179688 2.188667
v -0.809225 5.419104 1.832526
v 0.255432 4.928834 2.283357
v 0.286063 5.524981 2.655999
v 1.165234 4.232111 1.416866
v 1.721370 4.619161 1.069504
v 1.231101 4.744571 0.004840
v 0.510526 4.306493 -0.461578
v 0.303084 4.658541 -1.317738
v 0.960325 5.277925 -1.448038
v 0.223446 4.124719 0.421671
v -0.000725 4.069928 -0.392108
v -1.973632 5.927880 2.022383
v -2.028071 5.144732 1.662985
v -1.318002 4.763474 0.610642
v -0.557425 4.709042 0.780674
v -1.808271 4.835740 -0.454015
v -1.212133 4.542532 -1.097762
v -0.761573 4.824846 -1.768576
v -0.918119 5.537397 -1.915371
v -2.505002 5.537815 -0.059673
v -2.117945 6.082757 -1.016989
v -2.667177 6.218277 0.898770
v -2.612387 5.404498 1.207945
v 0.632905 4.580316 0.185260
v 0.473379 4.463618 -0.035346
v -0.016406 5.133187 0.168502
v 0.143112 5.249885 0.185267
v 0.215261 4.274808 0.048920
v -0.274525 4.944377 0.174908
v 0.215261 4.274808 0.321607
v -0.274525 4.944377 0.195619
v 0.473379 4.463618 0.405872
v -0.016406 5.133187 0.202025
v 0.097516 -0.000000 0.636558
v -0.433018 -0.000000 0.464177
v -0.433018 0.000000 -0.093651
v 0.097516 0.000000 -0.266033
v 0.425405 -0.000000 0.185259
v -0.031239 1.707043 0.185259
v -0.316775 1.868216 -0.266032
v 0.157747 2.844501 0.004444
v 0.272153 2.683328 0.185260
v -0.778792 2.128999 -0.093651
v -0.027366 3.105277 0.073511
v -0.778792 2.128999 0.464177
v -0.027366 3.105277 0.297016
v -0.316775 1.868216 0.636559
v 0.157747 2.844501 0.366082
v 0.706123 3.634545 0.004444
v 0.896771 3.686678 0.185267
v 0.397650 3.550185 0.073511
v 0.397650 3.550185 0.297016
v 0.706123 3.634545 0.366082
vn 0.0735 0.9917 0.1053
vn 0.1457 0.5762 -0.8042
vn 0.2144 0.5515 -0.8062
vn -0.3635 0.5208 -0.7724
vn -0.3508 0.9329 0.0812
vn -0.5365 0.5835 0.6097
vn -0.0824 0.3879 0.9180
vn 0.6514 0.5952 0.4706
vn 0.9558 -0.1378 -0.2598
vn 0.9861 0.0962 0.1354
vn -0.5031 -0.4645 0.7288
vn 0.8377 -0.2161 0.5015
vn 0.5741 -0.6989 -0.4265
vn 0.4135 -0.9090 -0.0527
vn -0.1763 -0.8349 0.5214
vn -0.5262 -0.8264 0.2006
vn 0.0728 -0.5219 -0.8499
vn -0.6583 -0.3522 -0.6653
vn -0.8229 0.1525 0.5473
vn -0.9154 -0.0512 -0.3992
vn 0.1908 0.8193 -0.5407
vn 0.2805 0.8761 0.3922
vn 0.5853 0.8107 -0.0149
vn 0.5504 -0.0797 0.8311
vn 0.8618 -0.4305 -0.2684
vn -0.3898 -0.8005 0.4552
vn 0.0159 -0.9253 -0.3788
vn -0.4882 -0.8627 -0.1321
vn -0.2370 0.0894 -0.9674
vn -0.9443 0.2838 0.1668
vn -0.8263 -0.0804 0.5574
vn 0.6844 -0.2607 -0.6809
vn 0.0682 0.0499 -0.9964
vn -0.3366 0.0402 -0.9408
vn -0.8071 -0.5904 0.0000
vn -0.1046 0.1095 0.9885
vn 0.4977 0.5645 0.6585
vn 0.3053 0.9427 -0.1346
vn 0.4571 0.8890 -0.0279
vn 0.2006 0.9796 0.0111
vn 0.1751 0.8093 -0.5607
vn 0.0501 0.8512 -0.5224
vn 0.1737 0.5606 -0.8097
vn 0.0355 0.5020 -0.8642
vn 0.2688 0.2378 -0.9334
vn 0.2860 0.4275 -0.8576
vn -0.3997 0.6050 -0.6887
vn -0.7137 0.3923 -0.5803
vn -0.4348 0.5254 -0.7314
vn -0.2842 0.9525 0.1091
vn -0.4223 0.8912 -0.1656
vn -0.1283 0.9910 -0.0368
vn -0.7207 0.4792 0.5009
vn -0.8475 0.3077 0.4326
vn -0.7924 0.3546 0.4964
vn -0.0782 0.1697 0.9824
vn -0.1073 0.3748 0.9209
vn 0.1541 0.2251 0.9621
vn 0.8674 0.3797 0.3216
vn 0.5992 0.5486 0.5831
vn 0.5117 0.6082 0.6069
vn 0.8353 0.2637 -0.4825
vn 0.9067 0.0054 -0.4218
vn 0.8380 -0.2499 -0.4851
vn 0.9857 0.0855 0.1454
vn 0.9422 0.1042 0.3185
vn 0.8754 -0.0124 0.4832
vn -0.3128 -0.4344 0.8447
vn -0.2029 -0.5788 0.7898
vn -0.5136 -0.4357 0.7392
vn 0.5792 -0.4533 0.6776
vn 0.5157 -0.3166 0.7961
vn 0.6539 -0.3275 0.6820
vn 0.8308 -0.4560 -0.3191
vn 0.8311 -0.4537 -0.3215
vn 0.6449 -0.6707 -0.3664
vn 0.5222 -0.8528 -0.0058
vn 0.4161 -0.8608 -0.2930
vn 0.4095 -0.8636 -0.2943
vn -0.0661 -0.4782 0.8758
vn -0.0331 -0.4150 0.9092
vn 0.1431 -0.8957 0.4210
vn -0.1568 -0.8966 0.4142
vn -0.3514 -0.9310 0.0986
vn -0.4080 -0.9083 0.0922
vn 0.2043 -0.4044 -0.8915
vn 0.3121 -0.3719 -0.8742
vn -0.0301 -0.2080 -0.9777
vn -0.7345 -0.2880 -0.6145
vn -0.7537 -0.4166 -0.5082
vn -0.7302 -0.4234 -0.5362
vn -0.6637 -0.2734 0.6962
vn -0.8867 0.1328 0.4429
vn -0.8012 0.2278 0.5534
vn -0.9902 -0.1026 -0.0947
vn -0.9857 0.0022 -0.1683
vn -0.8520 0.0146 -0.5234
vn 0.1757 0.9249 -0.3372
vn 0.2138 0.8056 -0.5525
vn 0.0127 0.9207 0.3901
vn 0.3094 0.8314 0.4616
vn 0.5569 0.8305 0.0108
vn 0.5833 0.8118 -0.0292
vn 0.6449 0.0305 0.7637
vn 0.2534 -0.0044 0.9673
vn 0.8646 -0.4245 -0.2687
vn 0.8588 -0.2807 -0.4285
vn -0.3616 -0.8744 0.3235
vn -0.5164 -0.7620 0.3908
vn 0.3315 -0.8416 -0.4264
vn -0.0139 -0.8417 -0.5398
vn -0.6207 -0.7480 0.2351
vn -0.4298 -0.9022 0.0369
vn -0.5665 0.1009 -0.8179
vn -0.4362 -0.0953 -0.8948
vn -0.8804 0.4218 0.2169
vn -0.9482 0.2559 0.1883
vn -0.7781 0.3210 0.5400
vn -0.4877 0.1734 0.8556
vn 0.6831 0.0503 -0.7286
vn 0.3980 -0.1351 -0.9074
vn 0.4977 0.5645 -0.6585
vn -0.1046 0.1095 -0.9885
vn -0.3366 0.0402 0.9408
vn 0.0682 0.0499 0.9964
vn -0.0000 -1.0000 -0.0000
vn -0.5904 0.8071 0.0000
vn 0.7786 -0.2420 -0.5790
vn -0.1580 0.3342 -0.9292
vn -0.7925 0.6099 0.0000
vn -0.0617 0.2144 0.9748
vn 0.7468 -0.1861 0.6384
vn 0.6815 -0.4243 -0.5962
vn -0.2619 0.1818 -0.9478
vn -0.7231 0.6908 0.0000
vn -0.1553 0.1484 0.9767
vn 0.5728 -0.3976 0.7168
vn 0.7332 0.2165 -0.6447
vn -0.2335 -0.1119 -0.9659
vn -0.9698 -0.2441 0.0000
vn -0.1962 -0.0825 0.9771
vn 0.6586 0.1495 0.7375
vn 0.7468 -0.1861 -0.6384
vn -0.0617 0.2144 -0.9748
vn -0.1580 0.3342 0.9292
vn 0.7786 -0.2420 0.5790
vn 0.5728 -0.3976 -0.7168
vn -0.1553 0.1484 -0.9767
vn -0.2619 0.1818 0.9478
vn 0.6815 -0.4243 0.5963
vn 0.6586 0.1495 -0.7375
vn -0.1962 -0.0825 -0.9771
vn -0.2335 -0.1119 0.9659
vn 0.7332 0.2165 0.6447
vn 0.3651 0.0917 -0.9264
vn 0.9738 0.2267 0.0172
vn 0.9647 0.2631 0.0094
vn -0.7714 -0.1295 -0.6231
vn 0.0330 0.0208 -0.9992
vn -0.7741 -0.1397 0.6175
vn -0.9044 -0.1501 -0.3993
vn 0.0558 0.0290 0.9980
vn -0.9066 -0.1430 0.3970
vn 0.3785 0.1063 0.9195
usemtl Leafs
s off
f 3//1 4//1 5//1
f 9//2 10//2 7//2
f 13//3 14//3 10//3
f 18//4 14//4 15//4
f 6//5 18//5 19//5
f 23//6 24//6 20//6
f 26//7 28//7 23//7
f 3//8 2//8 29//8
f 33//9 34//9 8//9
f 36//10 32//10 30//10
f 26//11 38//11 40//11
f 42//12 36//12 35//12
f 44//13 45//13 46//13
f 47//14 48//14 44//14
f 51//15 52//15 38//15
f 48//16 47//16 52//16
f 12//17 11//17 46//17
f 58//18 56//18 54//18
f 59//19 60//19 49//19
f 58//20 57//20 16//20
f 18//21 5//21 14//21
f 24//22 2//22 1//22
f 31//23 7//23 4//23
f 35//24 27//24 40//24
f 33//25 36//25 43//25
f 52//26 47//26 41//26
f 54//27 55//27 45//27
f 57//28 51//28 60//28
f 13//29 12//29 56//29
f 19//30 17//30 16//30
f 25//31 22//31 37//31
f 34//32 46//32 11//32
f 61//33 63//33 64//33
f 65//34 63//34 62//34
f 65//35 68//35 66//35
f 67//36 70//36 68//36
f 61//37 70//37 69//37
f 6//38 1//38 5//38
f 1//39 2//39 5//39
f 2//40 3//40 5//40
f 5//41 4//41 10//41
f 4//42 7//42 10//42
f 7//43 8//43 9//43
f 10//44 9//44 12//44
f 9//45 11//45 12//45
f 12//46 13//46 10//46
f 14//47 13//47 15//47
f 15//48 16//48 17//48
f 17//49 18//49 15//49
f 18//50 17//50 19//50
f 19//51 20//51 6//51
f 20//52 1//52 6//52
f 20//53 19//53 23//53
f 19//54 21//54 22//54
f 23//55 19//55 22//55
f 24//56 23//56 28//56
f 23//57 25//57 26//57
f 26//58 27//58 28//58
f 28//59 27//59 2//59
f 27//60 29//60 2//60
f 29//61 30//61 3//61
f 8//62 7//62 31//62
f 31//63 32//63 8//63
f 32//64 33//64 8//64
f 32//65 31//65 30//65
f 30//66 29//66 36//66
f 29//67 35//67 36//67
f 26//68 25//68 37//68
f 37//69 38//69 26//69
f 38//70 39//70 40//70
f 40//71 39//71 35//71
f 39//72 41//72 35//72
f 41//73 42//73 35//73
f 34//74 33//74 46//74
f 33//75 43//75 46//75
f 43//76 44//76 46//76
f 44//77 43//77 47//77
f 43//78 42//78 41//78
f 47//79 43//79 41//79
f 38//80 37//80 49//80
f 49//81 50//81 38//81
f 50//82 51//82 38//82
f 52//83 51//83 48//83
f 51//84 53//84 54//84
f 48//85 51//85 54//85
f 46//86 45//86 12//86
f 45//87 55//87 12//87
f 55//88 56//88 12//88
f 56//89 55//89 54//89
f 54//90 53//90 58//90
f 53//91 57//91 58//91
f 50//92 49//92 60//92
f 49//93 22//93 21//93
f 59//94 49//94 21//94
f 60//95 59//95 57//95
f 59//96 16//96 57//96
f 16//97 15//97 58//97
f 6//98 5//98 18//98
f 5//99 10//99 14//99
f 1//100 20//100 24//100
f 24//101 28//101 2//101
f 4//102 3//102 30//102
f 30//103 31//103 4//103
f 29//104 27//104 35//104
f 27//105 26//105 40//105
f 32//106 36//106 33//106
f 36//107 42//107 43//107
f 41//108 39//108 52//108
f 39//109 38//109 52//109
f 44//110 48//110 45//110
f 48//111 54//111 45//111
f 53//112 51//112 57//112
f 51//113 50//113 60//113
f 56//114 58//114 13//114
f 58//115 15//115 13//115
f 16//116 59//116 21//116
f 21//117 19//117 16//117
f 23//118 22//118 25//118
f 22//119 49//119 37//119
f 11//120 9//120 34//120
f 9//121 8//121 34//121
f 61//122 62//122 63//122
f 65//123 66//123 63//123
f 65//35 67//35 68//35
f 67//124 69//124 70//124
f 61//125 64//125 70//125
s 1
f 72//126 73//126 74//126
f 63//127 68//127 70//127
f 75//126 71//126 74//126
f 71//126 72//126 74//126
f 70//127 64//127 63//127
f 63//127 66//127 68//127
usemtl Bark
s off
f 77//128 79//128 76//128
f 80//129 78//129 77//129
f 82//130 81//130 80//130
f 82//131 85//131 83//131
f 84//132 79//132 85//132
f 79//133 86//133 87//133
f 78//134 88//134 86//134
f 83//135 88//135 81//135
f 85//136 89//136 83//136
f 79//137 90//137 85//137
f 87//138 62//138 61//138
f 86//139 65//139 62//139
f 89//140 65//140 88//140
f 90//141 67//141 89//141
f 87//142 69//142 90//142
f 77//143 78//143 79//143
f 80//144 81//144 78//144
f 82//130 83//130 81//130
f 82//145 84//145 85//145
f 84//146 76//146 79//146
f 79//147 78//147 86//147
f 78//148 81//148 88//148
f 83//135 89//135 88//135
f 85//149 90//149 89//149
f 79//150 87//150 90//150
f 87//151 86//151 62//151
f 86//152 88//152 65//152
f 89//140 67//140 65//140
f 90//153 69//153 67//153
f 87//154 61//154 69//154
s 1
f 74//155 76//156 75//157
f 73//158 77//159 74//155
f 72//160 80//161 73//158
f 72//160 84//162 82//163
f 71//164 76//156 84//162
f 74//155 77//159 76//156
f 73//158 80//161 77//159
f 72//160 82//163 80//161
f 72//160 71//164 84//162
f 71//164 75//157 76//156
